<?xml version="1.0" encoding="UTF-8" standalone="no"?>
<svg width="42px" height="42px" viewBox="0 0 42 42" version="1.1" xmlns="http://www.w3.org/2000/svg" xmlns:xlink="http://www.w3.org/1999/xlink">
    <!-- Generator: Sketch 43.1 (39012) - http://www.bohemiancoding.com/sketch -->
    <title>Group 2</title>
    <desc>Created with Sketch.</desc>
    <defs></defs>
    <g id="Page-1" stroke="none" stroke-width="1" fill="none" fill-rule="evenodd">
        <g id="Group-2" transform="translate(2.000000, 2.000000)">
            <circle id="Oval" stroke="#FFFFFF" stroke-width="2.4000001" cx="19" cy="19" r="19"></circle>
            <path d="M10.810973,19.739097 L17.2410927,25.6361957 C17.5091313,25.9057936 17.5091313,26.3428259 17.2410927,26.6110049 C16.9730541,26.8834406 16.539421,26.8834406 16.2713824,26.6110049 L8.58667356,19.5659868 C8.56702675,19.5503785 8.53895988,19.5574732 8.52071642,19.537608 C8.38178541,19.3971334 8.32144165,19.2140906 8.32565168,19.0324668 C8.32144165,18.849424 8.38178541,18.6678002 8.52071642,18.5273255 C8.53895988,18.5074604 8.56843009,18.5145551 8.5880769,18.4975278 L16.2713824,11.4525097 C16.539421,11.1829119 16.9730541,11.1829119 17.2410927,11.4525097 C17.5091313,11.7235266 17.5091313,12.1605589 17.2410927,12.4301568 L10.810973,18.3244176 L22.8566029,18.3244176 L27.2651751,18.3244176 C27.6510945,18.3244176 27.9668468,18.6422593 27.9668468,19.0324668 C27.9668468,19.4226742 27.6510945,19.739097 27.2651751,19.739097 L10.810973,19.739097 Z" id="Imported-Layers-Copy-2" fill="#FFFFFF" transform="translate(18.146147, 19.032822) rotate(90.000000) translate(-18.146147, -19.032822) "></path>
        </g>
    </g>
</svg>